<svg xmlns="http://www.w3.org/2000/svg" fill="none" viewBox="0 0 77 56">
  <path fill="#445962" fill-rule="evenodd" d="M6.087 10.842c.772-2.062-.953-4.976-1.239-5.305-.297-.343.055.002-.225-.309-.184.033-1.542.467-1.542.467s-.493 1.165-.417 2.19c.065.861-.541 1.233.004 2.408.063.138 3.375.666 3.419.549Z" clip-rule="evenodd"/>
  <path fill="#445962" fill-rule="evenodd" d="M5.259 8.38s-.01-.566.185-.762c0 .346.36 1.266.36 1.266L5.26 8.38ZM8.91 27.987s-1.07-1.353-1.091-3.53c-.034-3.68-.28-8.494-1.47-11.905-.376-1.074-.808-1.575-.808-1.575s.35-1.393-.096-2.115c-.448-.724-.901-1.03-1.357-1.423-.33-.282-1.038-1.1-1.416-1.544l-.158.088s.726 1.302.89 2.192c.062.333-.032 1.187-.165 1.531-.22.576-.572.586-.572.586s.33.633.298 1.184c-.032.55-1.124 1.98-1.199 4.347C1.528 23.346.002 27.987.002 27.987H8.91Z" clip-rule="evenodd"/>
  <path fill="#374E90" fill-rule="evenodd" d="M3.91 3.655c-.095.045-.204.265-.307.287-.043.093-.073.218.01.305.146.153.243.292.195.399-.049.107-.195.167-.195.167s.408.163.497-.167c.104-.391-.315-.454-.2-.99Z" clip-rule="evenodd"/>
  <path fill="#445962" fill-rule="evenodd" d="M3.16 5.368s-.725.397-1.218.933c-.322.35-.702.947-.378 2.238.274 1.098.189 1.997.579 2.973.218.549 3.122.908 3.951.827 1.226-.121 1.225-1.21.688-1.58-.929-.638-2.82-.077-3.039-.927-.247-.958.035-3.61-.583-4.464Z" clip-rule="evenodd"/>
  <path fill="#445962" fill-rule="evenodd" d="M3.108 1.224s1.083-1.5 2.999-.37c.23.135 1.174.872.81 1.624-.18.185-.19.365-.225.41 0 0-.084.163-.082.167.003.007-.045.1-.046.111a.478.478 0 0 0 .115.422l.086.09a.097.097 0 0 1 .008.124.428.428 0 0 1-.196.15s-.113.047.03.217c0 0 .127.134-.132.243 0 0 .158.15-.072.234 0 0-.148.017-.132.203 0 0 .16.364-.678.299l-.386-.033s-.252.719-.3.704c-.002.074.608 1.704.532 1.704l-2.801.404.696-2.505s.122-.399.162-.633c-.145-.01-1.646-1.898-.388-3.565ZM5.917 8.16s.212 1.545.514 2.571c.189.65.454.799.598 1.157.377.924-.543 1.392-.543 1.392l-1.08-1.79s.086-2.01.511-3.33Z" clip-rule="evenodd"/>
  <path fill="#445962" fill-rule="evenodd" d="M3.15 3.381s-.672-.046-1.124.59c-.452.635-.153.936-.226 1.257-.074.321-.226.362-.226.362s.59.126 1.002-.114c.412-.241 1.151-1.346.573-2.095Z" clip-rule="evenodd"/>
  <path fill="#FFFFFE" fill-rule="evenodd" d="M3.35 5.84c-.934 1.031.225 1.58-.26 4.743l-1.627.012c-.04-.71-.04-.694-.041-.942C1.396 4.813 1.614.017 4.563 0A2.63 2.63 0 0 1 6.21.554C6.65.892 4.925 4.05 3.338 5.86" clip-rule="evenodd"/>
  <path fill="#AFBCBF" fill-rule="evenodd" d="M3.238 5.604c-1.311 1.495.09 1.575-.395 4.737l-2.355.028C.422 9.71.465 9.85.463 9.605.44 4.764 1.741.193 4.689.175 5.383.172 5.77.36 5.95.559c.374.412-1.126 3.23-2.713 5.041" clip-rule="evenodd"/>
  <path fill="#FFFFFE" fill-rule="evenodd" d="M5.651 2.07a.288.288 0 1 1-.574 0c0-.159.129-.288.288-.288.158 0 .286.13.286.289ZM6.086 1.308a.287.287 0 1 1-.573 0c0-.16.127-.289.286-.289.16 0 .287.13.287.289ZM5.273 2.81a.288.288 0 1 1-.574 0 .288.288 0 1 1 .574 0Z" clip-rule="evenodd"/>
  <path fill="#FFFFFE" fill-rule="evenodd" d="M5.57 2.358c-.034 0-.066 0-.096-.004l.022-.223c.45.05 1.513-.337 1.523-.34l.075.21c-.042.015-.994.357-1.524.357ZM4.82 3.52a.288.288 0 1 1-.577.002.288.288 0 0 1 .576-.002ZM4.343 4.25c0 .16-.129.29-.286.29a.289.289 0 0 1 0-.579c.157 0 .286.13.286.29Z" clip-rule="evenodd"/>
  <path fill="#AFBCBF" fill-rule="evenodd" d="M11.831 48.373h8.857v-14.57h-8.857v14.57ZM23.635 48.373h8.857V37.442h-8.857v10.93ZM35.438 48.373h8.857V44.32h-8.857v4.054Z" clip-rule="evenodd"/>
  <path fill="#E68782" fill-rule="evenodd" d="M0 48.372c0 2.785 1.763 4.884 4.558 5.53 4.87 1.126 60.733-.79 60.733-.79l.099 3.274 11.72-8.019-76.223.005S0 47.044 0 48.372Z" clip-rule="evenodd"/>
  <path fill="#AFBCBF" fill-rule="evenodd" d="M.002 48.373H8.91V27.986H.002v20.387Z" clip-rule="evenodd"/>
  <path fill="#445962" fill-rule="evenodd" d="M25.038 13.21c-.92-.102-.02 1.734-.017 2.69.002.537.222 1.212.822 2.245.55.945 2.032 2.217 2.032 2.217l.418-.711s-1.341-2.058-1.657-2.537c-.546-.828-1.095-3.847-1.598-3.903Z" clip-rule="evenodd"/>
  <path fill="#445962" fill-rule="evenodd" d="M28.238 19.59s.488.247.622.92c.106.524.085 1.124-.183.9-.266-.222-.864-1.112-.864-1.112M30.016 35.57s-1.524-6.846-2.7-11.387c-.843-3.258-1.682-4.912-1.715-5.184-.038-.316.193-3.105.193-3.105s-.147.971-.6.238c-.454-.733-.914-1.043-1.378-1.443-.333-.287-1.052-1.116-1.437-1.567l-.16.09s.738 1.32.904 2.224c.062.339-.033 1.204-.167 1.555-.224.583-.581.593-.581.593s.173.73.142 1.287c-.032.56-.793 1.939-1.055 4.326-.747 6.813-2.688 8.299-2.688 8.299.623.687 2.198 1.006 4.343 2.787 1.788 1.486 5.285 1.727 6.9 1.287Z" clip-rule="evenodd"/>
  <path fill="#445962" fill-rule="evenodd" d="m27.404 35.129.431 1.109c-.087.175.106 1.117.232 1.175.273.128 3.14-.643 2.844-1.282-.117-.25-.508-.264-.882-.1-.143.063-.346.011-.488.014-.445.004-.668-.104-.668-.104l-.254-1.203-1.215.39ZM25.811 18.064c.772-2.064-.953-4.979-1.239-5.308-.297-.344.055.003-.225-.308-.185.033-1.543.466-1.543.466s-.493 1.167-.417 2.191c.065.863-.54 1.234.004 2.41.064.138 3.376.665 3.42.549Z" clip-rule="evenodd"/>
  <path fill="#445962" fill-rule="evenodd" d="M24.983 15.6s-.01-.566.186-.763c0 .347.36 1.267.36 1.267l-.546-.504Z" clip-rule="evenodd"/>
  <path fill="#374E90" fill-rule="evenodd" d="M23.634 10.874c-.095.045-.204.264-.307.287-.044.093-.073.218.01.305.146.153.242.292.195.4-.049.106-.195.166-.195.166s.408.162.497-.167c.104-.392-.315-.455-.2-.991Z" clip-rule="evenodd"/>
  <path fill="#445962" fill-rule="evenodd" d="M23.258 12.648s-.802.198-1.413.59c-.402.257-.919.736-.932 2.069-.01 1.132-.32 1.981-.19 3.025.074.587 2.791 1.677 3.614 1.811 1.216.199 1.49-.855 1.065-1.35-.738-.855-2.71-.797-2.708-1.675.004-.993.946-3.487.564-4.47Z" clip-rule="evenodd"/>
  <path fill="#445962" fill-rule="evenodd" d="M22.83 8.44s1.084-1.499 3-.37c.23.136 1.175.873.81 1.626-.178.184-.19.365-.224.408 0 0-.084.165-.082.169.002.007-.045.1-.046.111a.478.478 0 0 0 .115.421l.086.09a.097.097 0 0 1 .007.125.43.43 0 0 1-.195.15s-.114.047.03.217c0 0 .127.135-.132.244 0 0 .158.148-.073.233 0 0-.147.018-.132.203 0 0 .16.364-.678.299l-.385-.032s-.252.718-.3.703c-.003.074.608 1.705.531 1.705l-2.802.405.697-2.507s.12-.398.16-.633c-.142-.01-1.644-1.9-.386-3.566Z" clip-rule="evenodd"/>
  <path fill="#445962" fill-rule="evenodd" d="M22.874 10.598s-.674-.046-1.125.59c-.451.635-.152.937-.225 1.258-.074.32-.226.362-.226.362s.59.127 1.003-.114c.411-.24 1.15-1.346.573-2.096Z" clip-rule="evenodd"/>
  <path fill="#FFFFFE" fill-rule="evenodd" d="M23.075 13.059c-.935 1.031.225 1.58-.26 4.745l-2.375.012c-.04-.71.708-.694.707-.944-.026-4.841.192-9.638 3.141-9.656a2.636 2.636 0 0 1 1.648.555c.44.338-1.285 3.496-2.873 5.307" clip-rule="evenodd"/>
  <path fill="#AFBCBF" fill-rule="evenodd" d="M22.96 12.823c-1.31 1.496.092 1.576-.393 4.738l-2.656.029c-.068-.659-.024-.52-.026-.764-.023-4.843 1.58-9.417 4.528-9.433.695-.004 1.08.183 1.261.383.373.412-1.126 3.231-2.715 5.043" clip-rule="evenodd"/>
  <path fill="#FFFFFE" fill-rule="evenodd" d="M25.376 9.288a.288.288 0 1 1-.574 0c0-.159.128-.288.287-.288.158 0 .287.13.287.288ZM25.81 8.525a.287.287 0 1 1-.574 0 .288.288 0 1 1 .574 0ZM24.963 10.041a.288.288 0 1 1-.574 0 .287.287 0 1 1 .574 0Z" clip-rule="evenodd"/>
  <path fill="#FFFFFE" fill-rule="evenodd" d="M25.295 9.576a.78.78 0 0 1-.098-.005l.023-.222a.696.696 0 0 0 .08.004c.487 0 1.433-.341 1.444-.344l.074.209c-.042.016-.992.358-1.523.358ZM24.543 10.738a.287.287 0 1 1-.574 0c0-.16.128-.289.288-.289.157 0 .286.13.286.29ZM24.067 11.469c0 .16-.128.289-.286.289a.288.288 0 0 1 0-.578c.158 0 .286.129.286.289Z" clip-rule="evenodd"/>
  <path fill="#445962" fill-rule="evenodd" d="m19.716 30.913-.622 1.012c-.19.036-.823.757-.794.893.034.157.665.807 1.37 1.177.468.245 1.191.063 1.346-.23.129-.244-.658-.467-.745-.58-.27-.356-.318-.6-.318-.6l.802-.928-1.039-.744ZM63.023 47.366s.18 1.067.41 1.143c.23.078 2.46-.798 2.165-1.284-.156-.317-1.498.292-1.712-.081l-.864.222ZM52.709 46.72s-.57.917-.452 1.13c.121.21 2.363 1.054 2.465.495.093-.344-1.31-.788-1.223-1.211l-.79-.414ZM59.405 26.089l-2.143 1.593.374 6.521 3.685-.326.084-5.563-2-2.225Z" clip-rule="evenodd"/>
  <path fill="#445962" fill-rule="evenodd" d="M61.127 32.022c-.24.884 3.251 12.382 3.536 13.544-.752.546-10.136 1.73-11.877-.318 0 0 4.2-12.283 4.924-12.273.724.01 3.416-.953 3.416-.953Z" clip-rule="evenodd"/>
  <path fill="#445962" fill-rule="evenodd" d="M57.651 37.387c-.087 1.215 1.81 1.325 1.861.108.088-1.216-1.81-1.325-1.86-.108Z" clip-rule="evenodd"/>
  <path fill="#445962" fill-rule="evenodd" d="m57.913 37.319-.669-2.048.946-.314.603 1.71-.88.652ZM56.73 32.411s.183-.162.513 0h-.513ZM60.992 30.014c-.175-1.744-.294-3.246-1.614-4.69-3.355.759-3.504 1.831-1.9 5.122.063.141 3.47-.315 3.514-.433Z" clip-rule="evenodd"/>
  <path fill="#445962" fill-rule="evenodd" d="M60.142 28.512s-.011-.572.187-.772c0 .352.364 1.281.364 1.281l-.551-.51ZM59.7 25.112c.666 2.42-.426 2.127-1.664.865.183-.384.186-2.296.153-2.531l1.512 1.666Z" clip-rule="evenodd"/>
  <path fill="#445962" fill-rule="evenodd" d="M58.92 23.618c-.1.048-.215.28-.325.305-.205.363.591.71.011.925 1.023.195.233-.623.315-1.23ZM59.144 26.057c-2.801-1.202-3.325 2.692-3.668 4.894-.18 1.15 2.022 3.797 2.608 4.098l.39-.547c-.89-2.42-1.258-2.919-1.352-3.31-.145-.607.518-.815 1.663-4.684M57.992 23.886c.122.005.251-.689-.007-.738.142-.416-.423-.548-.628-.303-.128-.335-.722-.05-.593.249-.394-.25-.772.344-.446.615-.548.12-.153.693.116.656-.213.38.334.803.637.495.588.133 1.188-.296.922-.974Z" clip-rule="evenodd"/>
  <path fill="#445962" fill-rule="evenodd" d="M57.218 24.878c-.384.54-.967.098-.898-.428.042.309.688.584.89.227l.008.201ZM56.763 23.094c-.44-.287-.981.245-.444.615-.252-.264.22-.68.444-.615ZM58.156 23.818c.1-.043.141-.748-.106-.762.098-.482-.523-.44-.693-.21.078-.08.661 0 .558.266 0 0 .277.287.134.575-.088.178.107.131.107.131Z" clip-rule="evenodd"/>
  <path fill="#445962" fill-rule="evenodd" d="M56.192 24.602c.044.101.137.1.22.06.061.227.415.157.407-.076.282.2.356-.235.066-.308.228-.173-.073-.493-.264-.266-.196-.309-.6-.021-.348.251a.294.294 0 0 0-.081.34ZM57.467 24.123c.013.111.102.136.194.124-.008.235.35.272.41.047.21.276.41-.12.153-.274.268-.1.074-.494-.174-.333-.098-.354-.565-.198-.407.136a.298.298 0 0 0-.176.3Z" clip-rule="evenodd"/>
  <path fill="#445962" fill-rule="evenodd" d="M56.963 23.403c.014.11.102.135.194.123-.008.236.349.272.41.048.21.275.41-.12.152-.274.27-.097.075-.495-.173-.334-.099-.354-.565-.197-.407.137a.298.298 0 0 0-.176.3Z" clip-rule="evenodd"/>
  <path fill="#445962" fill-rule="evenodd" d="M56.17 23.803c.014.11.103.136.195.124-.008.235.35.271.41.047.21.275.41-.12.153-.274.268-.1.073-.493-.174-.334-.099-.353-.565-.197-.407.137a.298.298 0 0 0-.176.3Z" clip-rule="evenodd"/>
  <path fill="#445962" fill-rule="evenodd" d="M56.805 24.094c.013.11.101.134.194.123-.007.236.348.272.41.048.21.275.411-.121.153-.274.268-.1.073-.494-.174-.334-.099-.354-.565-.197-.406.136a.298.298 0 0 0-.177.3Z" clip-rule="evenodd"/>
  <path fill="#445962" fill-rule="evenodd" d="M56.877 24.736c.014.11.101.135.194.124-.008.234.35.272.41.047.21.276.41-.12.153-.274.268-.1.073-.494-.174-.334-.098-.353-.565-.198-.407.136a.299.299 0 0 0-.176.3Z" clip-rule="evenodd"/>
  <path fill="#445962" fill-rule="evenodd" d="M57.362 24.067c.082-.087-.1-.316-.197-.156-.098.161.117.244.197.156ZM57.41 24.798c.12-.04.057-.284-.087-.212-.144.072-.033.251.087.212ZM56.716 23.72c.044-.11-.172-.245-.214-.088-.04.157.17.196.214.087ZM57.963 24.095c.12-.038.054-.293-.095-.23-.147.063-.024.27.095.23ZM56.624 24.456c.12-.039.055-.291-.093-.23-.148.063-.025.269.093.23ZM57.456 23.368c.12-.04.054-.293-.094-.23-.148.064-.025.27.094.23ZM62.35 22.115c.005.381-.588.381-.582 0-.006-.38.587-.38.581 0Z" clip-rule="evenodd"/>
  <path fill="#445962" fill-rule="evenodd" d="M62.295 21.772c.003.231-.358.231-.355 0-.002-.232.358-.232.355 0ZM62.195 22.35c.003.231-.358.232-.354 0-.004-.233.357-.232.354 0Z" clip-rule="evenodd"/>
  <path fill="#445962" fill-rule="evenodd" d="M61.66 22.05c-.51-.109-.328-.911.176-.788.51.108.328.911-.176.787ZM63.306 43.274c-.885-4.61-.737-4.42-1.057-5.433-.229-.728-2.163 1.413-1.94 1.946 1.119 2.165 1.844 5.62 2.779 7.912.516.044.897.036.835-.414-.119-.864-.59-3.918-.617-4.01ZM55.774 43.678c3.418-5.805 5.651-8.397.07-4.613-.595 2.366-2.34 5.43-3.157 7.768.355.379.645.627.895.25.484-.724 2.151-3.317 2.192-3.405ZM59.12 26.238c-.992-.16 1.174 2.697 1.13 3.733-.026.584.05-1.867.648-.716.545 1.053 1.871 1.3 1.553.763-.548-.928-.318-2.15-2.428-4.174l-.903.394ZM64.106 30.564s.197-.17.274-.362c.035-.088-.07-.233-.07-.233l-.204.595Z" clip-rule="evenodd"/>
  <path fill="#E47D78" fill-rule="evenodd" d="m61.514 27.16 3.046.846-1.518 4.588-2.826-.79 1.298-4.643Z" clip-rule="evenodd"/>
  <path fill="#EB9E94" fill-rule="evenodd" d="M61.514 27.162s.05-.11.165-.15a.45.45 0 0 1 .265 0l2.444.675.172.319" clip-rule="evenodd"/>
  <path fill="#E47D78" fill-rule="evenodd" d="m62.146 27.872 2.7.748-1.57 4.109-2.287-.799 1.157-4.058Z" clip-rule="evenodd"/>
  <path fill="#EB9E94" fill-rule="evenodd" d="M62.145 27.872s.045-.098.148-.134a.393.393 0 0 1 .235 0l2.164.6.152.281" clip-rule="evenodd"/>
  <path fill="#445962" fill-rule="evenodd" d="M63.575 31.944s.38.056.54-.063c.16-.12.43-.564.518-.76.088-.194-.157-.63-.307-.689-.15-.058-.582-.127-.66-.05-.086.086-.053.155-.053.155s-.067-.052-.182.047c-.07.06-.037.163-.037.163s-.09 0-.125.098a.182.182 0 0 0 .045.202s-.152.077-.023.317c.129.238.362.376.362.376l-.078.204ZM58.058 20.854s1.007-1.554 3.042-.356c.739.494 1.53 1.354.687 2.481-.31.392.53.729-.035.954-.208.087.314.31-.106.488.237.244-.223.143-.219.464 0 0 .17.386-.719.316l-.41-.033-.228.9c.212.179.505.445.673.736.731 1.26.899 3.338.547 5.52l-3.033-.268c-.015-1.343-1.498-4.45.057-5.941 0 0 .041-1.003.09-1.114-.154-.013-1.681-2.377-.346-4.147Z" clip-rule="evenodd"/>
</svg>
